<mxfile host="Electron" agent="Mozilla/5.0 (Windows NT 10.0; Win64; x64) AppleWebKit/537.36 (KHTML, like Gecko) draw.io/25.0.1 Chrome/128.0.6613.186 Electron/32.2.6 Safari/537.36" version="25.0.1">
  <diagram name="Страница — 1" id="s9fc-Zq_3AkZI84StvJ3">
    <mxGraphModel dx="1247" dy="727" grid="1" gridSize="10" guides="1" tooltips="1" connect="1" arrows="1" fold="1" page="1" pageScale="1" pageWidth="827" pageHeight="1169" math="0" shadow="0">
      <root>
        <mxCell id="0" />
        <mxCell id="1" parent="0" />
        <mxCell id="ZOmnmabJ6t3wYVLeoZAx-1" style="edgeStyle=orthogonalEdgeStyle;rounded=0;orthogonalLoop=1;jettySize=auto;html=1;" edge="1" source="ZOmnmabJ6t3wYVLeoZAx-2" parent="1">
          <mxGeometry relative="1" as="geometry">
            <mxPoint x="320" y="300" as="targetPoint" />
          </mxGeometry>
        </mxCell>
        <mxCell id="ZOmnmabJ6t3wYVLeoZAx-2" value="Начало" style="ellipse;whiteSpace=wrap;html=1;aspect=fixed;" vertex="1" parent="1">
          <mxGeometry x="280" y="90" width="80" height="80" as="geometry" />
        </mxCell>
        <mxCell id="ZOmnmabJ6t3wYVLeoZAx-9" value="&lt;div style=&quot;text-wrap: wrap;&quot;&gt;#include &amp;lt;iostream&amp;gt;&lt;/div&gt;&lt;div style=&quot;text-wrap: wrap;&quot;&gt;using namespace std;&lt;/div&gt;&lt;div style=&quot;text-wrap: wrap;&quot;&gt;int main() {&lt;/div&gt;" style="strokeWidth=2;html=1;shape=mxgraph.flowchart.annotation_2;align=left;labelPosition=right;pointerEvents=1;" vertex="1" parent="1">
          <mxGeometry x="320" y="190" width="50" height="90" as="geometry" />
        </mxCell>
        <mxCell id="ZOmnmabJ6t3wYVLeoZAx-12" style="edgeStyle=orthogonalEdgeStyle;rounded=0;orthogonalLoop=1;jettySize=auto;html=1;entryX=0.5;entryY=0;entryDx=0;entryDy=0;" edge="1" parent="1" source="ZOmnmabJ6t3wYVLeoZAx-10" target="ZOmnmabJ6t3wYVLeoZAx-11">
          <mxGeometry relative="1" as="geometry" />
        </mxCell>
        <mxCell id="ZOmnmabJ6t3wYVLeoZAx-10" value="int const size = 10;" style="rounded=0;whiteSpace=wrap;html=1;" vertex="1" parent="1">
          <mxGeometry x="265" y="300" width="110" height="30" as="geometry" />
        </mxCell>
        <mxCell id="ZOmnmabJ6t3wYVLeoZAx-14" style="edgeStyle=orthogonalEdgeStyle;rounded=0;orthogonalLoop=1;jettySize=auto;html=1;entryX=0.5;entryY=0;entryDx=0;entryDy=0;" edge="1" parent="1" source="ZOmnmabJ6t3wYVLeoZAx-11" target="ZOmnmabJ6t3wYVLeoZAx-13">
          <mxGeometry relative="1" as="geometry" />
        </mxCell>
        <mxCell id="ZOmnmabJ6t3wYVLeoZAx-11" value="int array[size];" style="rounded=0;whiteSpace=wrap;html=1;" vertex="1" parent="1">
          <mxGeometry x="275" y="360" width="90" height="30" as="geometry" />
        </mxCell>
        <mxCell id="ZOmnmabJ6t3wYVLeoZAx-16" style="edgeStyle=orthogonalEdgeStyle;rounded=0;orthogonalLoop=1;jettySize=auto;html=1;entryX=0.5;entryY=0;entryDx=0;entryDy=0;" edge="1" parent="1" source="ZOmnmabJ6t3wYVLeoZAx-13" target="ZOmnmabJ6t3wYVLeoZAx-15">
          <mxGeometry relative="1" as="geometry" />
        </mxCell>
        <mxCell id="ZOmnmabJ6t3wYVLeoZAx-13" value="int range_min, range_max, replace;" style="rounded=0;whiteSpace=wrap;html=1;" vertex="1" parent="1">
          <mxGeometry x="260" y="420" width="120" height="40" as="geometry" />
        </mxCell>
        <mxCell id="ZOmnmabJ6t3wYVLeoZAx-18" style="edgeStyle=orthogonalEdgeStyle;rounded=0;orthogonalLoop=1;jettySize=auto;html=1;entryX=0.5;entryY=0;entryDx=0;entryDy=0;" edge="1" parent="1" source="ZOmnmabJ6t3wYVLeoZAx-15">
          <mxGeometry relative="1" as="geometry">
            <mxPoint x="320" y="560" as="targetPoint" />
          </mxGeometry>
        </mxCell>
        <mxCell id="ZOmnmabJ6t3wYVLeoZAx-15" value="&lt;div&gt;range_min = 2;&lt;/div&gt;&lt;div&gt;range_max = 10000;&lt;/div&gt;" style="rounded=0;whiteSpace=wrap;html=1;" vertex="1" parent="1">
          <mxGeometry x="260" y="490" width="120" height="40" as="geometry" />
        </mxCell>
        <mxCell id="ZOmnmabJ6t3wYVLeoZAx-19" style="edgeStyle=orthogonalEdgeStyle;rounded=0;orthogonalLoop=1;jettySize=auto;html=1;entryX=0.5;entryY=0;entryDx=0;entryDy=0;" edge="1" parent="1" source="ZOmnmabJ6t3wYVLeoZAx-21" target="ZOmnmabJ6t3wYVLeoZAx-23">
          <mxGeometry relative="1" as="geometry" />
        </mxCell>
        <mxCell id="ZOmnmabJ6t3wYVLeoZAx-20" style="edgeStyle=orthogonalEdgeStyle;rounded=0;orthogonalLoop=1;jettySize=auto;html=1;entryX=0.5;entryY=0;entryDx=0;entryDy=0;" edge="1" parent="1" source="ZOmnmabJ6t3wYVLeoZAx-21">
          <mxGeometry relative="1" as="geometry">
            <Array as="points">
              <mxPoint x="430" y="590" />
              <mxPoint x="430" y="840" />
              <mxPoint x="320" y="840" />
            </Array>
            <mxPoint x="320" y="870" as="targetPoint" />
          </mxGeometry>
        </mxCell>
        <mxCell id="ZOmnmabJ6t3wYVLeoZAx-21" value="for (int i = 0; i &amp;lt; size; i++)" style="verticalLabelPosition=middle;verticalAlign=middle;html=1;shape=hexagon;perimeter=hexagonPerimeter2;arcSize=6;size=0.16666666666666666;labelPosition=center;align=center;" vertex="1" parent="1">
          <mxGeometry x="230" y="560" width="180" height="60" as="geometry" />
        </mxCell>
        <mxCell id="ZOmnmabJ6t3wYVLeoZAx-22" style="edgeStyle=orthogonalEdgeStyle;rounded=0;orthogonalLoop=1;jettySize=auto;html=1;entryX=0.5;entryY=0;entryDx=0;entryDy=0;" edge="1" parent="1" source="ZOmnmabJ6t3wYVLeoZAx-23">
          <mxGeometry relative="1" as="geometry">
            <mxPoint x="320" y="740" as="targetPoint" />
          </mxGeometry>
        </mxCell>
        <mxCell id="ZOmnmabJ6t3wYVLeoZAx-23" value="array[i] = ((double)rand() / RAND_MAX) * (range_max - range_min) + range_min;" style="rounded=0;whiteSpace=wrap;html=1;" vertex="1" parent="1">
          <mxGeometry x="235" y="650" width="170" height="60" as="geometry" />
        </mxCell>
        <mxCell id="ZOmnmabJ6t3wYVLeoZAx-24" style="edgeStyle=orthogonalEdgeStyle;rounded=0;orthogonalLoop=1;jettySize=auto;html=1;entryX=0;entryY=0.5;entryDx=0;entryDy=0;" edge="1" parent="1" target="ZOmnmabJ6t3wYVLeoZAx-21">
          <mxGeometry relative="1" as="geometry">
            <mxPoint x="320" y="770" as="sourcePoint" />
            <Array as="points">
              <mxPoint x="320" y="800" />
              <mxPoint x="210" y="800" />
              <mxPoint x="210" y="590" />
            </Array>
          </mxGeometry>
        </mxCell>
        <mxCell id="ZOmnmabJ6t3wYVLeoZAx-25" value="cout &amp;lt;&amp;lt; array[i] &amp;lt;&amp;lt; &quot; &quot;;" style="shape=parallelogram;perimeter=parallelogramPerimeter;whiteSpace=wrap;html=1;fixedSize=1;" vertex="1" parent="1">
          <mxGeometry x="237.5" y="740" width="165" height="30" as="geometry" />
        </mxCell>
        <mxCell id="ZOmnmabJ6t3wYVLeoZAx-26" style="edgeStyle=orthogonalEdgeStyle;rounded=0;orthogonalLoop=1;jettySize=auto;html=1;entryX=0.5;entryY=0;entryDx=0;entryDy=0;" edge="1" parent="1" source="ZOmnmabJ6t3wYVLeoZAx-27" target="ZOmnmabJ6t3wYVLeoZAx-30">
          <mxGeometry relative="1" as="geometry" />
        </mxCell>
        <mxCell id="ZOmnmabJ6t3wYVLeoZAx-27" value="for (int i = 1; i &amp;lt; size; i++)" style="verticalLabelPosition=middle;verticalAlign=middle;html=1;shape=hexagon;perimeter=hexagonPerimeter2;arcSize=6;size=0.21428571428571427;labelPosition=center;align=center;" vertex="1" parent="1">
          <mxGeometry x="240" y="870" width="160" height="60" as="geometry" />
        </mxCell>
        <mxCell id="ZOmnmabJ6t3wYVLeoZAx-28" style="edgeStyle=orthogonalEdgeStyle;rounded=0;orthogonalLoop=1;jettySize=auto;html=1;entryX=0.5;entryY=0;entryDx=0;entryDy=0;" edge="1" parent="1" source="ZOmnmabJ6t3wYVLeoZAx-30" target="ZOmnmabJ6t3wYVLeoZAx-35">
          <mxGeometry relative="1" as="geometry" />
        </mxCell>
        <mxCell id="ZOmnmabJ6t3wYVLeoZAx-29" style="edgeStyle=orthogonalEdgeStyle;rounded=0;orthogonalLoop=1;jettySize=auto;html=1;entryX=0;entryY=0.5;entryDx=0;entryDy=0;" edge="1" parent="1" source="ZOmnmabJ6t3wYVLeoZAx-30" target="ZOmnmabJ6t3wYVLeoZAx-27">
          <mxGeometry relative="1" as="geometry">
            <mxPoint x="130" y="900" as="targetPoint" />
            <Array as="points">
              <mxPoint x="450" y="990" />
              <mxPoint x="450" y="1410" />
              <mxPoint x="110" y="1410" />
              <mxPoint x="110" y="900" />
            </Array>
          </mxGeometry>
        </mxCell>
        <mxCell id="ZOmnmabJ6t3wYVLeoZAx-30" value="for (int j = 1; j &amp;lt; size - i; j++)" style="verticalLabelPosition=middle;verticalAlign=middle;html=1;shape=hexagon;perimeter=hexagonPerimeter2;arcSize=6;size=0.23333333333333334;labelPosition=center;align=center;" vertex="1" parent="1">
          <mxGeometry x="232.5" y="960" width="175" height="60" as="geometry" />
        </mxCell>
        <mxCell id="ZOmnmabJ6t3wYVLeoZAx-31" style="edgeStyle=orthogonalEdgeStyle;rounded=0;orthogonalLoop=1;jettySize=auto;html=1;entryX=0.5;entryY=0;entryDx=0;entryDy=0;" edge="1" parent="1" source="ZOmnmabJ6t3wYVLeoZAx-35" target="ZOmnmabJ6t3wYVLeoZAx-37">
          <mxGeometry relative="1" as="geometry">
            <Array as="points">
              <mxPoint x="235" y="1105" />
            </Array>
          </mxGeometry>
        </mxCell>
        <mxCell id="ZOmnmabJ6t3wYVLeoZAx-32" value="1" style="edgeLabel;html=1;align=center;verticalAlign=bottom;resizable=0;points=[];labelPosition=center;verticalLabelPosition=top;" vertex="1" connectable="0" parent="ZOmnmabJ6t3wYVLeoZAx-31">
          <mxGeometry x="-0.7761" relative="1" as="geometry">
            <mxPoint as="offset" />
          </mxGeometry>
        </mxCell>
        <mxCell id="ZOmnmabJ6t3wYVLeoZAx-33" style="edgeStyle=orthogonalEdgeStyle;rounded=0;orthogonalLoop=1;jettySize=auto;html=1;endArrow=none;startFill=0;" edge="1" parent="1">
          <mxGeometry relative="1" as="geometry">
            <mxPoint x="230" y="1370" as="targetPoint" />
            <mxPoint x="378.23" y="1105" as="sourcePoint" />
            <Array as="points">
              <mxPoint x="410" y="1105" />
              <mxPoint x="410" y="1370" />
            </Array>
          </mxGeometry>
        </mxCell>
        <mxCell id="ZOmnmabJ6t3wYVLeoZAx-34" value="0" style="edgeLabel;html=1;align=center;verticalAlign=bottom;resizable=0;points=[];labelPosition=center;verticalLabelPosition=top;" vertex="1" connectable="0" parent="ZOmnmabJ6t3wYVLeoZAx-33">
          <mxGeometry x="-0.9389" relative="1" as="geometry">
            <mxPoint as="offset" />
          </mxGeometry>
        </mxCell>
        <mxCell id="ZOmnmabJ6t3wYVLeoZAx-35" value="if (array[j] &amp;gt;&amp;nbsp;&lt;div&gt;array[j + 1])&lt;br&gt;&lt;/div&gt;" style="rhombus;whiteSpace=wrap;html=1;" vertex="1" parent="1">
          <mxGeometry x="261.25" y="1050" width="117.5" height="110" as="geometry" />
        </mxCell>
        <mxCell id="ZOmnmabJ6t3wYVLeoZAx-36" style="edgeStyle=orthogonalEdgeStyle;rounded=0;orthogonalLoop=1;jettySize=auto;html=1;entryX=0.5;entryY=0;entryDx=0;entryDy=0;" edge="1" parent="1" source="ZOmnmabJ6t3wYVLeoZAx-37" target="ZOmnmabJ6t3wYVLeoZAx-39">
          <mxGeometry relative="1" as="geometry" />
        </mxCell>
        <mxCell id="ZOmnmabJ6t3wYVLeoZAx-37" value="replace = array[j];" style="rounded=0;whiteSpace=wrap;html=1;" vertex="1" parent="1">
          <mxGeometry x="170" y="1190" width="130" height="30" as="geometry" />
        </mxCell>
        <mxCell id="ZOmnmabJ6t3wYVLeoZAx-38" style="edgeStyle=orthogonalEdgeStyle;rounded=0;orthogonalLoop=1;jettySize=auto;html=1;entryX=0.5;entryY=0;entryDx=0;entryDy=0;" edge="1" parent="1" source="ZOmnmabJ6t3wYVLeoZAx-39" target="ZOmnmabJ6t3wYVLeoZAx-41">
          <mxGeometry relative="1" as="geometry" />
        </mxCell>
        <mxCell id="ZOmnmabJ6t3wYVLeoZAx-39" value="array[j] = array[j + 1];" style="rounded=0;whiteSpace=wrap;html=1;" vertex="1" parent="1">
          <mxGeometry x="170" y="1250" width="130" height="30" as="geometry" />
        </mxCell>
        <mxCell id="ZOmnmabJ6t3wYVLeoZAx-40" style="edgeStyle=orthogonalEdgeStyle;rounded=0;orthogonalLoop=1;jettySize=auto;html=1;entryX=0;entryY=0.5;entryDx=0;entryDy=0;" edge="1" parent="1" source="ZOmnmabJ6t3wYVLeoZAx-41" target="ZOmnmabJ6t3wYVLeoZAx-30">
          <mxGeometry relative="1" as="geometry">
            <mxPoint x="180" y="990" as="targetPoint" />
            <Array as="points">
              <mxPoint x="235" y="1370" />
              <mxPoint x="150" y="1370" />
              <mxPoint x="150" y="990" />
            </Array>
          </mxGeometry>
        </mxCell>
        <mxCell id="ZOmnmabJ6t3wYVLeoZAx-41" value="array[j + 1] = replace;" style="rounded=0;whiteSpace=wrap;html=1;" vertex="1" parent="1">
          <mxGeometry x="170" y="1310" width="130" height="30" as="geometry" />
        </mxCell>
        <mxCell id="ZOmnmabJ6t3wYVLeoZAx-42" style="edgeStyle=orthogonalEdgeStyle;rounded=0;orthogonalLoop=1;jettySize=auto;html=1;" edge="1" parent="1" source="ZOmnmabJ6t3wYVLeoZAx-27">
          <mxGeometry relative="1" as="geometry">
            <mxPoint x="320" y="1480" as="targetPoint" />
            <mxPoint x="400" y="900" as="sourcePoint" />
            <Array as="points">
              <mxPoint x="490" y="900" />
              <mxPoint x="490" y="1450" />
              <mxPoint x="320" y="1450" />
            </Array>
          </mxGeometry>
        </mxCell>
        <mxCell id="ZOmnmabJ6t3wYVLeoZAx-44" style="edgeStyle=orthogonalEdgeStyle;rounded=0;orthogonalLoop=1;jettySize=auto;html=1;entryX=0.5;entryY=0;entryDx=0;entryDy=0;" edge="1" parent="1" source="ZOmnmabJ6t3wYVLeoZAx-45" target="ZOmnmabJ6t3wYVLeoZAx-48">
          <mxGeometry relative="1" as="geometry" />
        </mxCell>
        <mxCell id="ZOmnmabJ6t3wYVLeoZAx-45" value="cout &amp;lt;&amp;lt; endl;" style="shape=parallelogram;perimeter=parallelogramPerimeter;whiteSpace=wrap;html=1;fixedSize=1;" vertex="1" parent="1">
          <mxGeometry x="264.96000000000004" y="1480" width="110" height="30" as="geometry" />
        </mxCell>
        <mxCell id="ZOmnmabJ6t3wYVLeoZAx-46" style="edgeStyle=orthogonalEdgeStyle;rounded=0;orthogonalLoop=1;jettySize=auto;html=1;entryX=0.5;entryY=0;entryDx=0;entryDy=0;" edge="1" parent="1" source="ZOmnmabJ6t3wYVLeoZAx-48" target="ZOmnmabJ6t3wYVLeoZAx-50">
          <mxGeometry relative="1" as="geometry" />
        </mxCell>
        <mxCell id="ZOmnmabJ6t3wYVLeoZAx-47" style="edgeStyle=orthogonalEdgeStyle;rounded=0;orthogonalLoop=1;jettySize=auto;html=1;entryX=0.5;entryY=0;entryDx=0;entryDy=0;" edge="1" parent="1" source="ZOmnmabJ6t3wYVLeoZAx-48" target="ZOmnmabJ6t3wYVLeoZAx-51">
          <mxGeometry relative="1" as="geometry">
            <mxPoint x="419.96000000000004" y="1750" as="targetPoint" />
            <Array as="points">
              <mxPoint x="420.96000000000004" y="1570" />
              <mxPoint x="420.96000000000004" y="1730" />
              <mxPoint x="319.96000000000004" y="1730" />
            </Array>
          </mxGeometry>
        </mxCell>
        <mxCell id="ZOmnmabJ6t3wYVLeoZAx-48" value="for (int i = 0; i &amp;lt; size; i++)" style="verticalLabelPosition=middle;verticalAlign=middle;html=1;shape=hexagon;perimeter=hexagonPerimeter2;arcSize=6;size=0.23333333333333334;labelPosition=center;align=center;" vertex="1" parent="1">
          <mxGeometry x="244.96" y="1540" width="150" height="60" as="geometry" />
        </mxCell>
        <mxCell id="ZOmnmabJ6t3wYVLeoZAx-49" style="edgeStyle=orthogonalEdgeStyle;rounded=0;orthogonalLoop=1;jettySize=auto;html=1;entryX=0;entryY=0.5;entryDx=0;entryDy=0;" edge="1" parent="1" source="ZOmnmabJ6t3wYVLeoZAx-50" target="ZOmnmabJ6t3wYVLeoZAx-48">
          <mxGeometry relative="1" as="geometry">
            <mxPoint x="199.96" y="1570" as="targetPoint" />
            <Array as="points">
              <mxPoint x="319.96000000000004" y="1690" />
              <mxPoint x="209.96" y="1690" />
              <mxPoint x="209.96" y="1570" />
            </Array>
          </mxGeometry>
        </mxCell>
        <mxCell id="ZOmnmabJ6t3wYVLeoZAx-50" value="cout &amp;lt;&amp;lt; array[i] &amp;lt;&amp;lt; &quot; &quot;;" style="shape=parallelogram;perimeter=parallelogramPerimeter;whiteSpace=wrap;html=1;fixedSize=1;" vertex="1" parent="1">
          <mxGeometry x="244.96" y="1630" width="150" height="30" as="geometry" />
        </mxCell>
        <mxCell id="ZOmnmabJ6t3wYVLeoZAx-51" value="Конец" style="ellipse;whiteSpace=wrap;html=1;aspect=fixed;" vertex="1" parent="1">
          <mxGeometry x="279.96000000000004" y="1810" width="80" height="80" as="geometry" />
        </mxCell>
        <mxCell id="ZOmnmabJ6t3wYVLeoZAx-52" value="return 0;&lt;div&gt;}&lt;/div&gt;" style="strokeWidth=2;html=1;shape=mxgraph.flowchart.annotation_2;align=left;labelPosition=right;pointerEvents=1;" vertex="1" parent="1">
          <mxGeometry x="319.96000000000004" y="1750" width="20" height="40" as="geometry" />
        </mxCell>
      </root>
    </mxGraphModel>
  </diagram>
</mxfile>
